PathFileType	4	(X/Y/Z)	OpenSim_Sub04_EMGStiffKnee_Accel.trc
DataRate	CameraRate	NumFrames	NumMarkers	Units	OrigDataRate	OrigDataStartFrame	OrigNumFrames
100	100	17	8	m	100	1	8277
Frame#	Time	torso_imu_offset_imu	pelvis_imu_offset_imu	tibia_r_imu_offset_imu	femur_r_imu_offset_imu	tibia_l_imu_offset_imu	femur_l_imu_offset_imu	toes_r_imu_offset_imu	toes_l_imu_offset_imu
				X1	Y1	Z1	X2	Y2	Z2	X3	Y3	Z3	X4	Y4	Z4	X5	Y5	Z5	X6	Y6	Z6	X7	Y7	Z7	X8		Y8	Z8	

1	0	-7.35550798	-0.27481230	9.15822122	9.24999216	0.39964497	3.68866211	9.59189463	2.07370742	2.00260176	9.54238095	-1.60736933	0.46158996	9.73700199	-0.88509992	1.02217238	9.56838527	1.16129190	-1.74009108	5.91172699	-1.70466426	7.82921600	5.01767047	3.11034593	10.54319879
2	0.01000000	-7.45256215	-0.26478193	9.20051513	9.21847612	0.40815698	3.67998080	9.58443818	2.04233181	1.96549717	9.53570929	-1.59818561	0.49998078	9.72382532	-0.89397866	1.01478738	9.55022824	1.15268955	-1.77600498	5.87171321	-1.70321227	7.82405552	5.02027713	3.10167443	10.56761743
3	0.02000000	-7.46310703	-0.30230524	9.17726588	9.16866186	0.39040149	3.67216534	9.58022688	1.96112682	1.93660879	9.52068814	-1.61867771	0.48601418	9.75930699	-0.96146045	1.04564048	9.57592451	1.11335976	-1.77551963	5.90444416	-1.74710431	7.81065968	5.01964888	3.11839270	10.55431235
4	0.03000000	-7.39294371	-0.34520600	9.15129384	9.20583407	0.34051931	3.65919673	9.61384891	1.88094676	1.95612392	9.53662092	-1.59706380	0.44964712	9.77181886	-1.06251478	1.03337319	9.59813759	1.10469429	-1.76214600	5.91955866	-1.72551001	7.85515288	5.01319684	3.11829675	10.56197903
5	0.04000000	-7.32926137	-0.33297440	9.16128114	9.26750825	0.33298213	3.63859486	9.65290922	1.83329437	1.95580080	9.55199644	-1.55668820	0.44915572	9.74739795	-1.11741855	0.99842387	9.59497064	1.05211009	-1.80246938	5.90716909	-1.74130965	7.86041044	5.03349675	3.09905516	10.54666429
6	0.05000000	-7.31639155	-0.33138103	9.17398661	9.28197070	0.34348240	3.65745308	9.66399985	1.78997524	1.92367603	9.56083969	-1.55474403	0.46782774	9.72618658	-1.11031940	0.99522481	9.56702097	1.03199211	-1.80268612	5.89269398	-1.74257326	7.83617062	5.00984655	3.07559235	10.58078696
7	0.06000000	-7.31714344	-0.31462212	9.18070691	9.30626172	0.35358765	3.67166068	9.67608489	1.78821653	1.94176934	9.56484044	-1.54332594	0.44926018	9.71236399	-1.11693549	1.03005102	9.58027310	1.03334835	-1.82735876	5.91378512	-1.74819444	7.85304646	5.00696093	3.09786544	10.58391464
8	0.07000000	-7.30491143	-0.30656949	9.18332599	9.33245117	0.35164289	3.66677956	9.66574873	1.83621763	1.98376786	9.56165042	-1.56592771	0.45680027	9.72285059	-1.13463950	1.03658337	9.58283586	1.00777248	-1.81811571	5.88279317	-1.75546200	7.84446254	5.04355297	3.11615052	10.57576610
9	0.08000000	-7.27527735	-0.29336728	9.17162687	9.34803923	0.36354131	3.68738534	9.65654908	1.86082768	1.99254710	9.55979462	-1.58984321	0.46586862	9.69095829	-1.17261800	1.00130736	9.57324507	0.99413248	-1.79337689	5.89235569	-1.73301032	7.86891836	5.03327745	3.06613923	10.58099183
10	0.09000000	-7.15290193	-0.28846165	9.22335264	9.32181227	0.36253350	3.65785445	9.62267584	1.87167113	1.96209411	9.55684148	-1.57525057	0.44057514	9.69770652	-1.22734911	0.95479281	9.59431435	0.98474822	-1.77376000	5.96951545	-1.70381586	7.88030388	5.03243012	3.10006331	10.56754608
11	0.10000000	-7.15706394	-0.32709863	9.25737283	9.29315817	0.37135869	3.62746175	9.58560131	1.90220878	1.95360282	9.51921520	-1.59166749	0.45833495	9.72231851	-1.24570405	0.94185215	9.59354604	0.94972814	-1.76728501	5.96887138	-1.71299198	7.83171673	5.05209245	3.12754415	10.55692558
12	0.11000000	-7.24217629	-0.34204320	9.26320765	9.31729216	0.34690611	3.64872056	9.57473579	1.93515912	1.95350649	9.49691096	-1.62264984	0.47034354	9.71637331	-1.25529544	0.96742098	9.58653098	0.92873411	-1.81246585	5.89938466	-1.73462095	7.85957306	5.04499309	3.09686571	10.55235020
13	0.12000000	-7.18812375	-0.34210705	9.25577456	9.31197231	0.32476874	3.65760450	9.59644064	1.92706361	1.93466385	9.52473083	-1.62402579	0.45521162	9.70315075	-1.25223105	0.97372542	9.57975254	0.92651505	-1.82576498	5.89610372	-1.75527609	7.85280703	5.04979157	3.10145602	10.55147610
14	0.13000000	-7.13704308	-0.31724959	9.25963309	9.31349846	0.31997482	3.66280244	9.60134688	1.94048108	1.96260322	9.52599609	-1.63153564	0.44021286	9.71049869	-1.27332572	0.98292982	9.54425085	0.91914771	-1.79374110	5.93077607	-1.74533031	7.84236734	5.03185739	3.10381945	10.56432490
15	0.14000000	-7.12470881	-0.29399398	9.30055969	9.31672634	0.29696137	3.65612460	9.61783734	1.97838458	1.94334164	9.52866167	-1.63609564	0.42407156	9.69054774	-1.31155644	0.96777929	9.51971680	0.88173763	-1.79390426	5.92596611	-1.71326568	7.86664087	5.02894411	3.11703431	10.58023444
16	0.15000000	-7.11938005	-0.31045838	9.33327552	9.31428941	0.29855519	3.64731754	9.64689426	1.95371735	1.94370170	9.53886861	-1.57835931	0.45104551	9.66297596	-1.33522802	0.95977452	9.57094669	0.86395740	-1.79822699	5.93964160	-1.71878960	7.84153342	5.05706054	3.07930780	10.57114046
17	0.16000000	-7.13420673	-0.35495886	9.34355534	9.32855238	0.31445536	3.68046287	9.63874238	1.95579516	1.99554691	9.53216989	-1.54302813	0.46060891	9.64358242	-1.40091237	0.99763075	9.59108581	0.86422839	-1.77819180	5.93306510	-1.73489903	7.84536781	5.07038287	3.05163775	10.60501409
